<svg width="40" height="40" viewBox="0 0 40 40" fill="none" xmlns="http://www.w3.org/2000/svg">
<g clip-path="url(#clip0)">
<path d="M37.0636 2.33301H33.2143C32.89 2.33301 32.6272 2.5959 32.6272 2.92012C32.6272 3.24434 32.89 3.50723 33.2143 3.50723H37.0636C38.0359 3.50723 38.827 4.29832 38.827 5.27066V26.0491H11.1184C10.7941 26.0491 10.5312 26.3119 10.5312 26.6362C10.5312 26.9604 10.7941 27.2233 11.1184 27.2233H38.827V29.6556C38.827 30.628 38.0359 31.419 37.0636 31.419H33.2143C32.89 31.419 32.6272 31.6819 32.6272 32.0061C32.6272 32.3304 32.89 32.5932 33.2143 32.5932H37.0636C38.6834 32.5932 40.0013 31.2754 40.0013 29.6556V5.27059C40.0013 3.65082 38.6834 2.33301 37.0636 2.33301Z" fill="#FF5445"/>
<path d="M30.8648 31.4191H2.93766C1.96531 31.4191 1.17422 30.628 1.17422 29.6557V27.2234H8.76883C9.09312 27.2234 9.35594 26.9605 9.35594 26.6363C9.35594 26.3121 9.09312 26.0492 8.76883 26.0492H1.17414V5.27066C1.17414 4.29832 1.96523 3.50723 2.93758 3.50723H30.8647C31.189 3.50723 31.4518 3.24441 31.4518 2.92012C31.4518 2.59582 31.189 2.33301 30.8647 2.33301H2.93766C1.31781 2.33309 0 3.6509 0 5.27066V29.6556C0 31.2754 1.31781 32.5932 2.93766 32.5932H14.6177L13.5798 36.4942H11.5977C11.2734 36.4942 11.0105 36.7571 11.0105 37.0813C11.0105 37.4055 11.2734 37.6684 11.5977 37.6684H28.4023C28.7266 37.6684 28.9895 37.4055 28.9895 37.0813C28.9895 36.7571 28.7266 36.4942 28.4023 36.4942H26.4202L25.3823 32.5932H30.8647C31.189 32.5932 31.4518 32.3304 31.4518 32.0061C31.4518 31.6819 31.189 31.4191 30.8648 31.4191ZM14.7948 36.4942L15.8327 32.5932H24.1672L25.2051 36.4942H14.7948Z" fill="#FF5445"/>
<path d="M18.6777 19.1096V22.4514C18.6777 22.7756 18.9405 23.0385 19.2648 23.0385C19.5891 23.0385 19.852 22.7757 19.852 22.4514V19.1096C19.852 18.7854 19.5891 18.5225 19.2648 18.5225C18.9405 18.5225 18.6777 18.7854 18.6777 19.1096Z" fill="#FF5445"/>
<path d="M21.2324 17.4855V22.4512C21.2324 22.7754 21.4952 23.0383 21.8195 23.0383C22.1438 23.0383 22.4066 22.7755 22.4066 22.4512V17.4855C22.4066 17.1613 22.1438 16.8984 21.8195 16.8984C21.4952 16.8984 21.2324 17.1613 21.2324 17.4855Z" fill="#FF5445"/>
<path d="M23.7871 15.3664V22.4524C23.7871 22.7766 24.0499 23.0395 24.3742 23.0395C24.6985 23.0395 24.9613 22.7767 24.9613 22.4524V15.3664C24.9613 15.0422 24.6985 14.7793 24.3742 14.7793C24.0499 14.7793 23.7871 15.0421 23.7871 15.3664Z" fill="#FF5445"/>
<path d="M26.9289 15.8857C26.6046 15.8857 26.3418 16.1486 26.3418 16.4729V22.452C26.3418 22.7762 26.6046 23.0391 26.9289 23.0391C27.2532 23.0391 27.516 22.7763 27.516 22.452V16.4729C27.5159 16.1486 27.2531 15.8857 26.9289 15.8857Z" fill="#FF5445"/>
<path d="M28.8965 14.3596V22.4522C28.8965 22.7764 29.1593 23.0393 29.4836 23.0393C29.8079 23.0393 30.0707 22.7765 30.0707 22.4522V14.3596C30.0707 14.0354 29.8079 13.7725 29.4836 13.7725C29.1593 13.7725 28.8965 14.0354 28.8965 14.3596Z" fill="#FF5445"/>
<path d="M32.0402 15.1807C31.7159 15.1807 31.4531 15.4436 31.4531 15.7678V22.4515C31.4531 22.7757 31.7159 23.0386 32.0402 23.0386C32.3645 23.0386 32.6273 22.7758 32.6273 22.4515V15.7678C32.6273 15.4435 32.3645 15.1807 32.0402 15.1807Z" fill="#FF5445"/>
<path d="M34.5949 12.2988C34.2706 12.2988 34.0078 12.5617 34.0078 12.8859V22.4517C34.0078 22.7759 34.2706 23.0388 34.5949 23.0388C34.9192 23.0388 35.182 22.776 35.182 22.4517V12.8859C35.182 12.5616 34.9192 12.2988 34.5949 12.2988Z" fill="#FF5445"/>
<path d="M34.9416 8.43754C34.6805 8.24535 34.313 8.30121 34.1208 8.56238L31.9121 11.5638L29.8294 10.0486C29.591 9.87488 29.2605 9.90543 29.0576 10.1197L26.8651 12.4361L24.7297 10.8125C24.5073 10.6435 24.1967 10.6546 23.9869 10.8388L18.8773 15.3274C18.6338 15.5414 18.6097 15.9123 18.8237 16.1559C18.9397 16.288 19.102 16.3555 19.2651 16.3555C19.4026 16.3555 19.5408 16.3074 19.6523 16.2095L24.4012 12.0377L26.5739 13.6896C26.8126 13.8711 27.1495 13.8435 27.3556 13.6258L29.5557 11.3014L31.6933 12.8568C31.9544 13.0468 32.3201 12.9902 32.5116 12.73L35.0665 9.25832C35.2587 8.99715 35.2028 8.62973 34.9416 8.43754Z" fill="#FF5445"/>
<path d="M17.4434 10.6804C17.4434 7.85516 15.1448 5.55664 12.3195 5.55664C11.9952 5.55664 11.7324 5.81953 11.7324 6.14375V10.6804C11.7324 11.0046 11.9952 11.2675 12.3195 11.2675H16.8562C17.1805 11.2675 17.4434 11.0047 17.4434 10.6804ZM12.9066 10.0934V6.77437C14.6156 7.03 15.97 8.38438 16.2257 10.0934H12.9066Z" fill="#FF5445"/>
<path d="M14.4789 12.3629H10.5292V8.41328C10.5292 8.08906 10.2664 7.82617 9.94211 7.82617C7.11688 7.82617 4.81836 10.1247 4.81836 12.9499C4.81836 15.7752 7.11688 18.0737 9.94211 18.0737C12.7673 18.0737 15.0659 15.7752 15.0659 12.9499C15.066 12.6257 14.8032 12.3629 14.4789 12.3629ZM9.94219 16.8995C7.76437 16.8995 5.99258 15.1277 5.99258 12.9499C5.99258 10.9715 7.45461 9.3282 9.35508 9.04391V12.9499C9.35508 13.2741 9.61789 13.537 9.94219 13.537H13.8484C13.564 15.4375 11.9207 16.8995 9.94219 16.8995Z" fill="#FF5445"/>
<path d="M13.3741 19.4141H7.00117C6.67687 19.4141 6.41406 19.6769 6.41406 20.0012C6.41406 20.3255 6.67687 20.5883 7.00117 20.5883H13.3741C13.6984 20.5883 13.9612 20.3254 13.9612 20.0012C13.9612 19.6769 13.6984 19.4141 13.3741 19.4141Z" fill="#FF5445"/>
<path d="M13.3741 21.8652H7.00117C6.67687 21.8652 6.41406 22.1281 6.41406 22.4523C6.41406 22.7766 6.67687 23.0395 7.00117 23.0395H13.3741C13.6984 23.0395 13.9612 22.7766 13.9612 22.4523C13.9612 22.128 13.6984 21.8652 13.3741 21.8652Z" fill="#FF5445"/>
</g>
<defs>
<clipPath id="clip0">
<rect width="40" height="40" fill="white"/>
</clipPath>
</defs>
</svg>
